<?xml version="1.0" encoding="UTF-8"?>
<svg version="1.1" viewBox="0 0 1900 1900" xmlns="http://www.w3.org/2000/svg" fill="#ffffff60">
	<path d="m 1548.0504,266.28064 c 2.8943,3.58788 2.7836,9.66963 0.1593,18.33643 7.5924,2.93352 14.055,9.2172 20.4623,18.54176 11.6361,-2.41891 18.6099,-1.63419 20.7391,3.33737 1.9469,5.9548 -6.1047,19.20891 -24.3372,40.74555 -1.3479,1.78414 -1.7126,3.75061 -1.6768,6.29987 0.2181,1.56602 -0.055,3.04088 -0.9117,4.91619 -2.3669,-0.94746 -3.9329,-0.72934 -5.1896,0.56319 -1.0387,2.85854 -1.7126,3.75061 -1.7126,3.75061 -16.0965,-0.95085 -31.4994,-8.38391 -45.626,-22.69963 -13.7261,-13.73293 -19.7133,-28.06484 -17.4699,-42.90456 2.1488,-0.61857 3.2232,-0.92785 3.2232,-0.92785 -0.4362,-3.13205 -0.6543,-4.69807 -0.6543,-4.69807 0.4558,-2.45809 2.8227,-1.51064 7.0292,-2.25616 1.0744,-0.30929 2.8227,-1.51065 4.9715,-2.12922 1.221,-3.84178 5.2093,-6.15332 12.3655,-6.35185 15.0254,-12.46939 25.0597,-17.21943 28.628,-14.52363 z"/>
	<path d="m 1352.9101,878.04305 c 3.3502,1.12978 6.2999,1.67678 9.3408,1.73216 -8.729,27.87568 -11.9198,45.08233 -8.6804,52.29388 5.2417,10.12545 14.2015,5.6847 26.7885,-12.83065 9.0673,3.207 19.2285,0.5146 29.5005,-8.25955 12.512,-9.88435 18.3594,-19.47899 18.034,-28.69279 6.938,-1.76455 11.9096,-3.89376 15.0058,-6.87926 5.4274,-4.5873 7.2311,-8.82953 5.4112,-12.72669 -2.6208,-5.06273 -12.2708,-7.8693 -28.9501,-8.4197 -8.0482,-0.47543 -16.1876,-0.45924 -23.8354,-0.35188 1.5856,-5.80825 1.4229,-10.41515 -0.3059,-14.80393 -1.1459,-4.78923 -3.1482,-7.70316 -5.2058,-7.5762 -8.3771,4.0403 -13.4953,9.70201 -15.2632,16.4935 -1.0386,2.85855 -1.0028,5.4078 -0.3843,7.55661 0.036,2.54926 -0.3288,4.51573 -1.986,5.22547 -0.7652,1.38369 -2.8228,1.51064 -5.1897,0.56319 -3.3502,-1.12978 -7.3743,-1.36749 -11.5807,-0.62197 -4.1153,0.2539 -7.5209,2.165 -11.1999,5.55095 -5.7921,6.55377 3.7668,9.85196 8.5006,11.74686 z"/>
	<path d="m 1024.8318,144.55436 21.5434,-9.22659 c 3.3144,-1.41947 6.6646,-0.28969 8.084,3.02469 l 9.8094,21.14299 c 0.9279,3.22321 -0.2019,6.57337 -3.0247,8.08402 l -21.6346,9.7182 c -3.2232,0.92786 -6.5733,-0.20192 -8.084,-3.02468 l -9.7182,-21.63462 c -0.9279,-3.22321 0.2019,-6.57337 3.0247,-8.08401 z"/>
	<path d="m 959.63765,515.84581 4.18685,4.84461 6.593,-5.3882 c 2.4223,-2.09343 5.8636,-1.45527 7.95705,0.96704 v 0 c 2.0934,2.42231 1.45525,5.86364 -0.96705,7.95706 l -6.59295,5.38821 4.18685,4.84461 c 2.0934,2.42231 1.45525,5.86364 -0.96705,7.95706 v 0 c -2.4223,2.09343 -5.9548,1.94688 -7.95705,-0.96704 l -4.1869,-4.84461 -6.1013,5.47937 c -2.91395,2.00226 -6.3553,1.3641 -8.4487,-1.05821 v 0 c -1.6018,-2.33114 -1.45525,-5.86363 0.96705,-7.95706 l 6.59295,-5.38821 -4.18685,-4.84461 c -1.6018,-2.33114 -1.45525,-5.86364 0.96705,-7.95706 v 0 c 2.4223,-2.09343 5.86365,-1.45526 7.95705,0.96704 z"/>
	<path d="m 1872.1024,681.97216 c 5.8441,4.13487 2.1096,10.5617 -9.9107,20.53721 -12.3067,-10.41855 -15.5461,-17.63009 -9.3178,-21.05183 3.4967,-2.40271 6.8469,-1.27292 9.5589,3.29819 2.2954,-4.15107 5.5186,-5.07892 9.6696,-2.78357 z"/>
	<path d="m 222.87059,173.75085 c -0.72934,3.93295 -0.78472,6.97383 0.23431,9.70542 -29.55249,-2.42911 -47.48847,-1.68699 -53.99027,3.2096 -9.01527,7.48164 -2.82616,15.24017 19.05896,23.36678 -1.33172,9.92353 3.60066,18.97459 14.21434,27.55362 12.88944,10.0181 23.832,14.08141 32.42723,11.60712 3.42173,6.2283 6.62535,10.89058 10.77641,13.18594 5.75288,4.62649 10.17745,5.44699 13.76532,2.55266 4.26183,-3.7864 4.6103,-13.89227 1.62821,-30.71806 -1.58222,-7.92127 -3.16443,-15.84255 -4.74664,-23.76382 5.99058,0.60238 10.77981,-0.5436 14.76814,-2.85514 4.57111,-2.712 6.59297,-5.38821 6.46602,-7.44585 -6.37145,-6.7753 -13.28989,-10.60089 -20.26372,-11.3856 -3.04088,-0.0554 -5.6813,0.47202 -7.83011,1.09059 -2.23997,1.11019 -3.71483,0.83669 -5.49897,-0.51121 -1.38368,-0.76512 -1.6018,-2.33114 -1.63759,-4.8804 0.63817,-3.44133 -0.10736,-7.64777 -1.43567,-11.45377 -1.72876,-4.38878 -4.22264,-7.39387 -8.28254,-10.18084 -7.81051,-4.49954 -8.74177,6.00678 -9.65343,10.92296 z"/>
	<path d="m 642.89106,806.78982 c 4.46036,3.36975 9.41233,6.83068 14.94708,9.89115 8.4129,-1.49105 17.71786,-2.30815 27.91489,-2.45129 10.64008,-24.47016 18.72409,-21.44548 24.926,8.18198 11.32341,10.23623 14.23394,21.9635 8.54923,36.16505 -6.79489,11.9616 -19.65195,18.22225 -38.75349,19.7653 -28.80696,1.7773 -45.37544,-4.85485 -50.28823,-19.49602 -0.87247,-6.26409 -0.17893,-12.74629 2.48109,-18.86383 1.16557,-0.80091 1.31212,-4.3334 0.93126,-10.50632 -0.14314,-10.19704 -0.524,-16.36996 0.023,-19.31967 0.69355,-6.48221 3.91676,-7.41006 9.26918,-3.36635 z"/>
	<path d="m 316.83833,560.58205 6.57337,0.20193 0.47543,-8.04823 c 0.14654,-3.5325 2.56885,-5.62592 6.10134,-5.47938 v 0 c 3.04088,0.0554 5.53476,3.06047 4.98776,6.01018 l -0.56659,8.53985 6.57337,0.20193 c 2.94971,0.547 5.53476,3.06047 5.47938,6.10135 v 0 c -0.63817,3.44132 -3.06047,5.53475 -6.10135,5.47937 l -6.57337,-0.20193 -0.47543,8.04823 c -0.0554,3.04088 -3.06047,5.53476 -6.10135,5.47938 v 0 c -3.04088,-0.0554 -5.53475,-3.06047 -5.47937,-6.10135 l 0.56659,-8.53985 -6.57337,-0.20192 c -2.94971,-0.547 -5.04314,-2.96931 -4.98776,-6.01019 v 0 c 0.14655,-3.53249 3.06047,-5.53475 6.10135,-5.47937 z"/>
	<path d="m 580.82608,362.41175 c 6.97382,0.78471 7.66397,8.03204 1.8881,22.72521 -15.73179,-2.91733 -22.06745,-7.14337 -18.82465,-13.66136 1.71257,-3.75062 5.4274,-4.58731 9.97892,-1.70917 -0.0716,-5.09851 2.35073,-7.19194 6.95763,-7.35468 z"/>
	<path d="m 1655.9578,1756.5382 c 3.7702,-3.8775 7.2312,-8.8295 10.7832,-14.2731 -0.9994,-8.3217 -1.3249,-17.5355 -0.9764,-27.6414 -23.3046,-11.441 -20.2799,-19.525 9.5657,-24.1609 10.145,-10.8318 22.1816,-12.6679 35.8004,-6.5827 11.3788,7.1953 17.1478,19.9612 17.6164,39.372 0.3025,28.5335 -7.2217,44.428 -21.6806,48.3576 -6.7557,0.7813 -12.6551,-0.3127 -18.6815,-3.4643 -0.892,-0.674 -4.3334,-1.3122 -10.4151,-1.4229 -10.197,0.1431 -16.2788,0.033 -19.2285,-0.5146 -5.8994,-1.094 -6.8273,-4.3172 -2.7836,-9.6697 z"/>
	<path d="m 1220.1202,1702.4126 0.3842,-7.5566 -7.5566,-0.3842 c -3.4413,-0.6382 -6.4268,-3.7345 -6.1891,-7.7586 v 0 c 0.1466,-3.5325 3.7344,-6.4268 7.1758,-5.7886 l 7.5566,0.3842 0.8758,-7.4654 c 0.1466,-3.5325 3.7345,-6.4268 7.267,-6.2803 v 0 c 3.9329,0.7293 6.4268,3.7344 6.2802,7.2669 l -0.4754,8.0483 7.5566,0.3842 c 3.5325,0.1466 6.4269,3.7344 5.7887,7.1758 v 0 c -0.2377,4.0241 -3.2428,6.518 -7.2669,6.2802 l -7.5566,-0.3842 -0.3843,7.5566 c -0.6382,3.4413 -3.7344,6.4268 -7.7585,6.1891 v 0 c -3.4414,-0.6382 -6.4268,-3.7344 -5.6975,-7.6674 z"/>
	<path d="m 1166.7993,1350.7924 6.4822,0.6936 0.967,-7.9571 c 0.6382,-3.4413 3.5521,-5.4436 6.5018,-4.8966 v 0 c 3.0409,0.055 5.5348,3.0605 4.9878,6.0102 l -1.0582,8.4487 6.391,1.1852 c 3.0409,0.055 5.0431,2.9693 4.9877,6.0101 v 0 c -0.6381,3.4414 -3.552,5.4436 -6.5017,4.8966 l -6.4823,-0.6935 -1.0582,8.4487 c -0.547,2.9497 -3.5521,5.4436 -6.5018,4.8966 v 0 c -2.9497,-0.547 -5.4436,-3.5521 -4.8966,-6.5018 l 1.0583,-8.4487 -6.4823,-0.6936 c -2.9497,-0.547 -4.9519,-3.4609 -4.8965,-6.5018 v 0 c 0.547,-2.9497 3.552,-5.4436 6.5018,-4.8966 z"/>
	<path d="m 1591.4734,1307.4893 19.7236,-13.1237 c 2.4223,-2.0934 6.3552,-1.3641 8.3575,1.5498 l 13.2149,19.2319 c 2.0934,2.4223 1.3641,6.3553 -1.5498,8.3575 l -19.2319,13.215 c -2.914,2.0022 -6.8469,1.2729 -8.3576,-1.5499 l -13.7065,-19.323 c -1.5106,-2.8228 -0.7813,-6.7558 1.5498,-8.3576 z"/>
	<path d="m 853.58208,1196.5424 c -5.35242,-4.0437 -1.618,-10.4705 10.80281,-19.8632 12.21549,10.9101 14.96327,18.0305 8.73497,21.4522 -3.98832,2.3116 -6.7557,0.7813 -9.95932,-3.8809 -2.29535,4.151 -5.51856,5.0789 -9.57846,2.2919 z"/>
	<path d="m 96.353736,1333.5953 c 2.204185,-3.6594 8.158984,-5.6063 17.372784,-5.9318 0.5666,-8.5398 4.26523,-17.5159 11.09591,-26.9282 -6.71652,-10.399 -7.98944,-17.2458 -4.12807,-21.615 5.24506,-3.6041 21.37731,-0.104 48.57906,9.5171 1.87531,0.8562 3.93295,0.7293 6.66454,-0.2897 1.16557,-0.8009 2.73159,-1.0191 5.28085,-1.0548 -0.547,2.9497 0.65436,4.698 2.12922,4.9715 3.04087,0.055 4.51573,0.3289 4.51573,0.3289 4.63928,16.1161 2.43169,33.505 -6.22232,52.7497 -8.47168,18.2615 -20.58321,28.7286 -35.93414,31.9842 -1.69297,-1.8395 -2.00226,-2.9139 -2.00226,-2.9139 -2.82276,1.5106 -4.47995,2.2204 -4.47995,2.2204 -2.64042,0.5274 -2.67621,-2.0219 -4.5873,-5.4274 -0.70974,-1.6572 -2.58505,-2.5135 -3.7864,-4.2619 -4.11528,0.2539 -7.50123,-3.4251 -10.34018,-10.0539 -17.89679,-10.4381 -26.143544,-18.0697 -24.157474,-23.2952 z"/>
	<path d="m 624.58338,1765.8023 c 2.69581,-3.5683 8.55944,-5.0236 17.68208,-4.8574 0.47542,-8.0482 4.57451,-16.4415 12.29726,-25.1799 -5.64211,-10.7083 -6.91504,-17.5551 -2.65321,-21.3415 5.15389,-3.1125 20.70335,0.7881 46.5572,12.1933 1.87531,0.8563 4.42457,0.8205 6.57337,0.2019 1.16557,-0.8009 3.22321,-0.9279 5.18969,-0.5632 -0.45584,2.4581 0.2539,4.1153 2.12921,4.9716 2.54926,-0.036 4.02411,0.2377 4.02411,0.2377 3.65605,15.9337 0.46522,33.1403 -9.48131,51.1283 -9.36375,17.5875 -21.78456,26.9802 -36.86199,28.761 -1.20136,-1.7484 -2.00226,-2.914 -2.00226,-2.914 -2.82276,1.5107 -4.47995,2.2204 -4.47995,2.2204 -2.05764,0.127 -2.09343,-2.4223 -4.00452,-5.8278 -0.8009,-1.1656 -2.09342,-2.4223 -3.29478,-4.1707 -4.02411,-0.2377 -7.41006,-3.9167 -9.7574,-10.4543 -16.14843,-11.6395 -23.8124,-19.6716 -21.9175,-24.4054 z"/>
	<path d="m 257.48601,1674.4788 c 0.69015,7.2473 -6.73951,8.9207 -21.97968,6.0945 -0.61517,-15.8783 2.7188,-22.8879 9.41912,-20.6283 4.42457,0.8205 5.84405,4.1348 4.3496,9.4515 4.29761,-1.2372 7.06499,0.2931 8.21096,5.0823 z"/>
	<path d="m 532.95287,1381.7613 19.72352,-13.1237 c 2.4223,-2.0935 6.35525,-1.3641 7.86589,1.4586 l 13.70654,19.3231 c 1.51064,2.8227 0.78131,6.7557 -1.54983,8.3575 l -19.72352,13.1237 c -2.42231,2.0935 -6.35526,1.3641 -7.8659,-1.4586 l -13.70653,-19.3231 c -1.60181,-2.3311 -0.87248,-6.2641 1.54983,-8.3575 z"/>
	<path d="m 77.670787,993.72537 5.11811,-5.6617 -5.17009,-5.02695 c -3.07666,-2.6046 -3.330565,-6.7199 -0.23431,-9.7054 v 0 c 2.51347,-2.58505 6.628755,-2.83895 9.213795,-0.32545 l 5.570545,5.6097 5.118111,-5.6617 c 2.51347,-2.58505 7.120372,-2.7478 9.705412,-0.2343 v 0 c 2.58505,2.51345 2.83895,6.62875 0.23431,9.7054 l -5.02694,5.1701 5.57054,5.6097 c 2.58505,2.51352 2.83895,6.62882 0.32548,9.21383 v 0 c -3.09626,2.9855 -7.21154,3.2394 -9.705417,0.2343 l -5.661706,-5.11811 -5.118115,5.66171 c -2.51347,2.585 -7.12037,2.7478 -9.705415,0.2343 v 0 c -2.585045,-2.5135 -2.747785,-7.12036 -0.23431,-9.70543 z"/>
</svg>
